<?xml version="1.0" standalone="no"?>
<!DOCTYPE svg PUBLIC "-//W3C//DTD SVG 20010904//EN"
 "http://www.w3.org/TR/2001/REC-SVG-20010904/DTD/svg10.dtd">
<svg version="1.0" xmlns="http://www.w3.org/2000/svg"
 width="400.000000pt" height="400.000000pt" viewBox="0 0 400.000000 400.000000"
 preserveAspectRatio="xMidYMid meet">

<g transform="translate(0.000000,400.000000) scale(0.100000,-0.100000)"
fill="#000000" stroke="none">
<path d="M1800 3989 c-311 -32 -634 -145 -893 -315 -129 -85 -190 -134 -306
-247 -173 -171 -296 -342 -401 -558 -305 -634 -253 -1383 137 -1966 317 -474
809 -784 1378 -868 145 -21 415 -21 560 0 649 97 1202 493 1494 1071 146 290
212 570 212 899 0 446 -127 833 -391 1190 -410 556 -1103 863 -1790 794z
m1271 -907 l29 -32 0 -160 c0 -154 -1 -160 -24 -187 l-24 -28 -754 -5 -753 -5
-45 -24 c-61 -32 -107 -76 -138 -136 l-27 -50 -3 -522 -3 -522 30 -33 29 -33
519 0 518 0 55 26 c69 32 117 79 146 144 43 93 41 210 -3 247 -13 10 -102 14
-405 18 l-390 5 -29 33 -29 32 0 156 0 156 34 34 34 34 593 0 c573 0 595 -1
626 -20 18 -11 35 -30 38 -43 4 -13 5 -185 3 -383 l-3 -359 -27 -73 c-38 -106
-83 -177 -163 -257 -80 -80 -151 -124 -257 -163 l-73 -27 -812 -3 -812 -3 -33
30 -33 29 0 759 c0 685 2 764 17 825 80 310 333 534 643 568 39 4 391 7 783 6
l714 -1 29 -33z"/>
</g>
</svg>
